<svg xmlns="http://www.w3.org/2000/svg" viewBox="0 0 100 100">
  <!-- Top-left: Teal/mint green stylized S shape -->
  <path d="M 10 20 Q 10 10 20 10 Q 30 10 30 20 Q 30 30 40 30 Q 50 30 50 40 Q 50 50 40 50 Q 30 50 30 60 Q 30 70 20 70 Q 10 70 10 60 Q 10 50 20 50 Q 30 50 30 40 Q 30 30 20 30 Q 10 30 10 20 Z" fill="#4ECDC4" />
  
  <!-- Top-right: Bright yellow circle -->
  <circle cx="75" cy="25" r="15" fill="#FFD93D" />
  
  <!-- Bottom-left: Light purple M/mountain shape -->
  <path d="M 10 60 L 25 40 L 40 60 L 40 80 L 10 80 Z" fill="#A8A8F0" />
  
  <!-- Bottom-right: Light orange/peach with wavy top edge -->
  <path d="M 50 60 Q 55 55 60 60 Q 65 55 70 60 Q 75 55 80 60 L 80 80 L 50 80 Z" fill="#FFB88C" />
</svg>

