<svg width="128" height="128" viewBox="0 0 128 128" fill="none" xmlns="http://www.w3.org/2000/svg">
<path d="M69.0901 75.4339C69.0901 73.7102 69.0901 72.8588 69.3705 72.1734C69.7443 71.2701 70.4608 70.5536 71.3642 70.1798C72.0391 69.8994 72.901 69.8994 74.6246 69.8994C82.7758 69.8994 89.3903 76.5138 89.3903 84.665C89.3903 86.1914 90.6259 87.4375 92.1627 87.4375C100.314 87.4375 106.928 94.0519 106.928 102.203C106.928 103.729 108.164 104.976 109.701 104.976C117.862 104.976 124.466 111.59 124.466 119.741C124.466 121.465 124.466 122.327 124.186 123.002C123.812 123.905 123.096 124.621 122.192 124.995C121.517 125.276 120.656 125.276 118.932 125.276H74.9985C72.9321 125.276 71.8937 125.276 71.1046 124.871C70.4089 124.518 69.8481 123.957 69.4951 123.261C69.0901 122.472 69.0901 121.434 69.0901 119.367V75.4339Z" fill="#FEA98A"/>
<path d="M12.6015 74.4496C9.43448 71.2826 7.85616 69.7043 6.4959 69.6004C5.32254 69.507 4.16995 69.9846 3.40156 70.888C2.51894 71.9264 2.51894 74.1589 2.51894 78.6342V119.38C2.51894 121.446 2.51894 122.485 2.92391 123.274C3.27695 123.969 3.83767 124.53 4.53338 124.883C5.32254 125.288 6.36091 125.288 8.42726 125.288H51.9972C54.0636 125.288 55.1019 125.288 55.8911 124.883C56.5868 124.53 57.1475 123.969 57.5006 123.274C57.9055 122.485 57.9055 121.446 57.9055 119.38V78.6342C57.9055 74.1589 57.9055 71.9264 57.0229 70.888C56.2545 69.9846 55.1019 69.5173 53.9286 69.6004C52.5683 69.7043 50.99 71.293 47.823 74.4496L34.3969 87.8757C32.9328 89.3398 32.2059 90.0667 31.3648 90.347C30.6276 90.5858 29.828 90.5858 29.0804 90.347C28.2393 90.077 27.5021 89.3398 26.0484 87.8757L12.6223 74.4496H12.6015Z" fill="#BD90FB"/>
<path d="M96.7848 59.2347C112.589 59.2347 125.402 46.4225 125.402 30.6174C125.402 14.8125 112.589 2 96.7848 2C80.9802 2 68.1674 14.8125 68.1674 30.6174C68.1674 46.4225 80.9802 59.2347 96.7848 59.2347Z" fill="#FBE25F"/>
<path d="M57.8952 8.84457C57.8952 6.77821 57.8952 5.73985 57.4902 4.95069C57.1371 4.25498 56.5764 3.69426 55.8807 3.34121C55.0916 2.93625 54.0532 2.93625 51.9868 2.93625H16.3604C8.71801 2.93625 2.51894 9.13531 2.51894 16.7777C2.51894 24.4201 8.71801 30.6192 16.3604 30.6192H51.9868C54.0532 30.6192 55.0916 30.6192 55.8807 30.2142C56.5764 29.8612 57.1371 29.3004 57.4902 28.6047C57.8952 27.8156 57.8952 26.7772 57.8952 24.7108V8.83418V8.84457Z" fill="#62DAB6"/>
<path d="M2.5088 36.5276C2.5088 34.4613 2.5088 33.4229 2.91376 32.6338C3.26681 31.9381 3.82753 31.3773 4.52324 31.0243C5.3124 30.6193 6.35077 30.6193 8.41712 30.6193H44.0435C51.6857 30.6193 57.8848 36.8184 57.8848 44.4608C57.8848 52.1032 51.6857 58.3022 44.0435 58.3022H8.41712C6.35077 58.3022 5.3124 58.3022 4.52324 57.8973C3.82753 57.5442 3.26681 56.9835 2.91376 56.2878C2.5088 55.4986 2.5088 54.4603 2.5088 52.3939V36.5173V36.5276Z" fill="#62DAB6"/>
</svg>
