<svg width="588" height="64" viewBox="0 0 588 64" fill="none" xmlns="http://www.w3.org/2000/svg">
<path d="M583.111 11.0224C583.111 9.03109 583.111 8.03544 582.724 7.27486C582.383 6.60584 581.839 6.06191 581.17 5.72103C580.409 5.3335 579.414 5.3335 577.422 5.3335H555.556C555.556 5.3335 555.556 5.3335 555.556 5.3335C548.192 5.3335 542.222 11.303 542.222 18.6668C542.222 26.0306 548.192 32.0002 555.556 32.0002C555.556 32.0002 555.556 32.0002 555.556 32.0002H577.422C579.414 32.0002 580.409 32.0002 581.17 31.6126C581.839 31.2717 582.383 30.7278 582.724 30.0588C583.111 29.2982 583.111 28.3026 583.111 26.3113V11.0224Z" fill="#FF89A0"/>
<path d="M536.889 37.6889C536.889 35.6976 536.889 34.7019 537.276 33.9414C537.617 33.2723 538.161 32.7284 538.83 32.3875C539.591 32 540.586 32 542.578 32H564.444C564.444 32 564.444 32 564.444 32C571.808 32 577.778 37.9695 577.778 45.3333C577.778 52.6971 571.808 58.6667 564.444 58.6667C564.444 58.6667 564.444 58.6667 564.444 58.6667H542.578C540.586 58.6667 539.591 58.6667 538.83 58.2791C538.161 57.9382 537.617 57.3943 537.276 56.7253C536.889 55.9647 536.889 54.9691 536.889 52.9778V37.6889Z" fill="#FF89A0"/>
<path d="M476.666 26.6666C476.666 14.3936 486.615 4.44434 498.888 4.44434C511.161 4.44434 521.11 14.3936 521.11 26.6666V52.9777C521.11 54.969 521.11 55.9646 520.723 56.7252C520.382 57.3942 519.838 57.9381 519.169 58.279C518.409 58.6666 517.413 58.6666 515.422 58.6666H482.355C480.364 58.6666 479.368 58.6666 478.607 58.279C477.938 57.9381 477.394 57.3942 477.054 56.7252C476.666 55.9646 476.666 54.969 476.666 52.9777V26.6666Z" fill="#8BEDF5"/>
<path d="M430.866 7.13397C432.274 5.72591 432.978 5.02188 433.79 4.7581C434.504 4.52607 435.273 4.52607 435.987 4.7581C436.799 5.02188 437.503 5.72591 438.911 7.13397L459.977 28.1998C461.385 29.6078 462.089 30.3119 462.353 31.1237C462.585 31.8378 462.585 32.607 462.353 33.3212C462.089 34.133 461.385 34.837 459.977 36.2451L438.911 57.3109C437.503 58.7189 436.799 59.423 435.987 59.6868C435.273 59.9188 434.504 59.9188 433.79 59.6868C432.978 59.423 432.274 58.7189 430.866 57.3109L409.8 36.2451C408.392 34.837 407.688 34.133 407.424 33.3212C407.192 32.607 407.192 31.8378 407.424 31.1237C407.688 30.3119 408.392 29.6078 409.8 28.1998L430.866 7.13397Z" fill="#FFB2E5"/>
<path d="M360.293 51.4847C369.685 60.8765 384.169 62.0715 394.857 55.0699C396.178 54.2045 396.839 53.7717 397.268 52.9013C397.6 52.2279 397.709 51.168 397.521 50.441C397.279 49.5013 396.599 48.8216 395.24 47.462L383.8 36.0226C382.392 34.6145 381.688 33.9105 381.424 33.0987C381.192 32.3846 381.192 31.6153 381.424 30.9012C381.688 30.0894 382.392 29.3854 383.8 27.9773L395.24 16.5379C396.599 15.1783 397.279 14.4986 397.521 13.5589C397.709 12.8319 397.6 11.7721 397.268 11.0986C396.839 10.2282 396.178 9.79543 394.857 8.92997C384.169 1.92836 369.685 3.12345 360.293 12.5152C349.532 23.2763 349.532 40.7236 360.293 51.4847Z" fill="#AFE57D"/>
<path d="M313.61 11.1684C314.31 9.07017 314.659 8.02107 315.308 7.24545C315.881 6.56052 316.616 6.03035 317.447 5.70356C318.388 5.3335 319.494 5.3335 321.706 5.3335H336.302C338.301 5.3335 339.3 5.3335 339.956 5.75188C340.53 6.11812 340.942 6.69017 341.108 7.35072C341.298 8.10533 340.982 9.05335 340.35 10.9494L326.389 52.832C325.69 54.9302 325.34 55.9793 324.691 56.7549C324.118 57.4398 323.383 57.97 322.552 58.2968C321.611 58.6668 320.505 58.6668 318.294 58.6668H303.697C301.698 58.6668 300.699 58.6668 300.043 58.2484C299.469 57.8822 299.057 57.3102 298.891 56.6496C298.701 55.895 299.017 54.947 299.649 53.0509L313.61 11.1684Z" fill="#5DB0FC"/>
<path d="M206.444 10.6668C206.444 9.01015 206.444 8.18181 206.715 7.5284C207.076 6.65719 207.768 5.96501 208.639 5.60414C209.293 5.3335 210.121 5.3335 211.778 5.3335C219.632 5.3335 226 11.701 226 19.5557C226 21.0285 227.194 22.2224 228.667 22.2224C236.521 22.2224 242.889 28.5899 242.889 36.4446C242.889 37.9174 244.083 39.1113 245.555 39.1113C253.41 39.1113 259.778 45.4788 259.778 53.3335C259.778 54.9902 259.778 55.8185 259.507 56.4719C259.146 57.3431 258.454 58.0353 257.583 58.3962C256.929 58.6668 256.101 58.6668 254.444 58.6668H212.133C210.142 58.6668 209.146 58.6668 208.386 58.2793C207.717 57.9384 207.173 57.3945 206.832 56.7255C206.444 55.9649 206.444 54.9692 206.444 52.9779L206.444 10.6668Z" fill="#FEA98A"/>
<path d="M145.045 9.71254C141.998 6.66631 140.475 5.14319 139.168 5.04028C138.033 4.95098 136.924 5.41027 136.185 6.27572C135.333 7.27316 135.333 9.42717 135.333 13.7352V52.9777C135.333 54.969 135.333 55.9646 135.721 56.7252C136.061 57.3942 136.605 57.9381 137.274 58.279C138.035 58.6666 139.031 58.6666 141.022 58.6666H182.977C184.969 58.6666 185.964 58.6666 186.725 58.279C187.394 57.9381 187.938 57.3942 188.279 56.7252C188.666 55.9646 188.666 54.969 188.666 52.9777V13.7352C188.666 9.42717 188.666 7.27316 187.814 6.27572C187.075 5.41027 185.966 4.95098 184.832 5.04028C183.524 5.14319 182.001 6.66631 178.955 9.71254L166.022 22.645C164.614 24.0531 163.91 24.7571 163.098 25.0209C162.384 25.2529 161.615 25.2529 160.901 25.0209C160.089 24.7571 159.385 24.0531 157.977 22.645L145.045 9.71254Z" fill="#BD90FB"/>
<circle cx="93.5556" cy="31.9999" r="27.5556" fill="#FBE25F"/>
<path d="M52.7773 11.0224C52.7773 9.03109 52.7773 8.03544 52.3898 7.27486C52.0489 6.60584 51.505 6.06191 50.836 5.72103C50.0754 5.3335 49.0798 5.3335 47.0885 5.3335H25.2218C25.2218 5.3335 25.2218 5.3335 25.2218 5.3335C17.858 5.3335 11.8885 11.303 11.8885 18.6668C11.8885 26.0306 17.858 32.0002 25.2218 32.0002C25.2218 32.0002 25.2218 32.0002 25.2218 32.0002H47.0885C49.0798 32.0002 50.0754 32.0002 50.836 31.6126C51.505 31.2717 52.0489 30.7278 52.3898 30.0588C52.7773 29.2982 52.7773 28.3026 52.7773 26.3113V11.0224Z" fill="#62DAB6"/>
<path d="M6.55566 37.6889C6.55566 35.6976 6.55566 34.7019 6.9432 33.9414C7.28408 33.2723 7.82801 32.7284 8.49703 32.3875C9.25761 32 10.2533 32 12.2446 32H34.1112C34.1112 32 34.1112 32 34.1112 32C41.475 32 47.4446 37.9695 47.4446 45.3333C47.4446 52.6971 41.475 58.6667 34.1112 58.6667C34.1112 58.6667 34.1112 58.6667 34.1112 58.6667H12.2445C10.2533 58.6667 9.25761 58.6667 8.49703 58.2791C7.82801 57.9382 7.28408 57.3943 6.9432 56.7253C6.55566 55.9647 6.55566 54.9691 6.55566 52.9778V37.6889Z" fill="#62DAB6"/>
</svg>
